<?xml version="1.0" encoding="utf-8"?>
<svg version="1.1" id="Layer_1" xmlns="http://www.w3.org/2000/svg" xmlns:xlink="http://www.w3.org/1999/xlink" x="0px" y="0px"
	 viewBox="0 0 300 300" style="enable-background:new 0 0 300 300;" xml:space="preserve">
<style type="text/css">
	.st0{enable-background:new    ;}
	.st1{fill:#F6D55C;}
	.st2{fill:#3FBB83;}
</style>
<g id="Page-1">
	<g id="logo" transform="translate(-8.000000, 0.000000)">
		<g class="st0">
			<path class="st1" d="M58.7,246.5c-12.1,0-27.6-2.6-46.5-7.9v-25.4c20.3,9.4,37.1,14.2,50.2,14.2c10.1,0,18.2-2.6,24.4-7.9
				c6.1-5.3,9.2-12.2,9.2-20.9c0-7.1-2-13.1-6-18.1c-4-5-11.5-10.5-22.3-16.6l-12.5-7.2c-15.4-8.8-26.2-17.1-32.5-24.8
				c-6.3-7.8-9.5-16.8-9.5-27.2c0-13.9,5-25.4,15.1-34.4c10.1-9,22.9-13.5,38.6-13.5c13.9,0,28.6,2.3,44.1,7v23.4
				C91.9,79.7,77.7,76,68.4,76c-8.9,0-16.2,2.4-22,7.1c-5.8,4.7-8.7,10.7-8.7,17.8c0,6,2.1,11.4,6.3,16c4.2,4.6,12,10.2,23.2,16.6
				l12.9,7.3c15.6,8.9,26.5,17.3,32.7,25.1c6.2,7.9,9.3,17.4,9.3,28.4c0,15.7-5.8,28.3-17.4,37.8S77.9,246.5,58.7,246.5z"/>
		</g>
		<g class="st0">
			<path class="st2" d="M133,242V61.3h35.5l50,139.8l51.5-139.8h31.7V242h-23.9V95l-49.8,134.9h-24.8L154.9,94.7V242H133z"/>
		</g>
	</g>
</g>
</svg>
