<?xml version="1.0" encoding="UTF-8"?>
<svg width="261px" height="235px" viewBox="0 0 261 235" version="1.1" xmlns="http://www.w3.org/2000/svg" xmlns:xlink="http://www.w3.org/1999/xlink">
    <!-- Generator: Sketch 61.2 (89653) - https://sketch.com -->
    <g id="Page-1" stroke="none" stroke-width="1" fill="none" fill-rule="evenodd">
        <g id="logo" transform="translate(0.000000, 42.000000)" fill="#F6D55C" fill-rule="nonzero">
            <path d="M37.2070312,151.757812 C52.50651,151.757812 64.794922,147.949219 74.072266,140.332031 C83.349609,132.714844 87.988281,122.623698 87.988281,110.058594 C87.988281,101.204427 85.514323,93.619792 80.566406,87.304688 C75.61849,80.989583 66.894531,74.2838542 54.394531,67.1875 L54.394531,67.1875 L44.042969,61.328125 C35.0585938,56.1848958 28.8736979,51.7578125 25.4882812,48.046875 C22.1028646,44.3359375 20.4101562,40.0716146 20.4101562,35.2539062 C20.4101562,29.5247396 22.7213542,24.7721354 27.34375,20.9960938 C31.9661458,17.2200521 37.8255208,15.3320312 44.921875,15.3320312 C52.408854,15.3320312 63.769531,18.3268229 79.003906,24.3164063 L79.003906,24.3164063 L79.003906,5.5664062 C66.634115,1.8554688 54.882812,0 43.75,0 C31.25,0 20.9635417,3.5970052 12.890625,10.7910156 C4.8177083,17.985026 0.78125,27.1484375 0.78125,38.28125 C0.78125,46.5494792 3.3040365,53.7923177 8.3496094,60.0097656 C13.3951823,66.2272135 22.0703125,72.8515625 34.375,79.882812 L34.375,79.882812 L44.335938,85.644531 C52.994792,90.527344 58.935547,94.954427 62.158203,98.925781 C65.380859,102.897135 66.992188,107.714844 66.992188,113.378906 C66.992188,120.279948 64.534505,125.846354 59.619141,130.078125 C54.703776,134.309896 48.209635,136.425781 40.1367188,136.425781 C29.6549479,136.425781 16.2760417,132.64974 0,125.097656 L0,125.097656 L0,145.410156 C15.1041667,149.641927 27.5065104,151.757812 37.2070312,151.757812 Z" id="S"></path>
        </g>
        <text id="M" font-family="LucidaGrande, Lucida Grande" font-size="200" font-weight="normal" fill="#3FBB83">
            <tspan x="88" y="193">M</tspan>
        </text>
    </g>
</svg>